#!OML:ASF F:\VICON\USERDATA\INSTALL\rory3\rory3.ASF
:FULLY-SPECIFIED
:DEGREES
499
root -6.35 17.6014 9.7476 -181.95 1.96729 178.193
lowerback 12.8815 1.5158 1.66945
upperback 1.27654 2.52337 1.43765
thorax -5.87377 1.29145 0.115695
lowerneck -19.9579 -1.85373 -12.032
upperneck 34.7076 -2.94016 5.7063
head 15.9359 -2.88794 3.76605
rclavicle 2.17669e-014 2.70347e-014
rhumerus -35.7565 -19.0931 -71.5974
rradius 32.8397
rwrist 8.86904
rhand -15.2613 8.40257
rfingers 7.12502
rthumb 10.9127 -21.2938
lclavicle 2.17669e-014 2.70347e-014
lhumerus -33.6352 7.57612 88.903
lradius 36.3665
lwrist 3.84131
lhand -24.0841 26.171
lfingers 7.12502
lthumb 2.39617 56.1373
rfemur -6.81824 -3.27818 20.6684
rtibia 35.4134
rfoot -22.7165 7.32719
rtoes 5.23995
lfemur -10.2164 -0.92161 -19.3667
ltibia 37.6381
lfoot -21.6958 0.335539
ltoes -18.713
500
root -6.4035 17.6175 9.74402 -182.045 1.96903 178.048
lowerback 12.8859 1.45949 1.47425
upperback 1.32214 2.41996 1.41301
thorax -5.83536 1.24635 0.218385
lowerneck -20.0764 -1.78601 -11.9255
upperneck 34.7746 -2.89159 5.7697
head 15.9882 -2.84771 3.78674
rclavicle -1.76918e-014 -3.57812e-014
rhumerus -35.5307 -19.7074 -71.3921
rradius 32.6543
rwrist 8.7278
rhand -15.6387 7.99238
rfingers 7.12502
rthumb 10.5487 -21.7229
lclavicle -1.76918e-014 -3.57812e-014
lhumerus -33.776 7.58379 88.8763
lradius 36.3856
lwrist 3.88514
lhand -23.9641 26.2502
lfingers 7.12502
lthumb 2.51201 56.2152
rfemur -6.56759 -3.24465 20.2768
rtibia 35.107
rfoot -22.4092 7.41788
rtoes 5.6073
lfemur -10.0604 -1.13286 -19.1728
ltibia 37.5355
lfoot -20.942 1.9254
ltoes -18.3328
501
root -6.45568 17.6306 9.74724 -182.145 1.8802 177.844
lowerback 12.9451 1.41074 1.22176
upperback 1.37368 2.31797 1.35597
thorax -5.82132 1.2027 0.317579
lowerneck -20.0852 -1.73279 -11.9413
upperneck 34.6925 -2.89988 6.08104
head 15.9536 -2.80086 3.92508
rclavicle 6.95746e-016 -1.59028e-015
rhumerus -35.2837 -20.4032 -71.2612
rradius 32.5327
rwrist 8.08505
rhand -16.2931 7.3689
rfingers 7.12502
rthumb 9.91735 -22.3775
lclavicle 6.95746e-016 -1.59028e-015
lhumerus -33.893 7.34326 88.9093
lradius 36.4529
lwrist 3.90345
lhand -23.9376 25.9599
lfingers 7.12502
lthumb 2.53766 55.9246
rfemur -6.35079 -3.35131 19.826
rtibia 34.7822
rfoot -22.1932 7.54109
rtoes 5.69177
lfemur -9.85424 -1.43519 -18.9801
ltibia 37.3183
lfoot -20.1634 3.50533
ltoes -17.7011
502
root -6.5069 17.6502 9.74635 -182.292 1.87745 177.831
lowerback 13.0769 1.37048 1.12038
upperback 1.38775 2.2577 1.38203
thorax -5.88461 1.17684 0.409089
lowerneck -20.0359 -1.69898 -11.8891
upperneck 34.6242 -2.89933 6.16763
head 15.9072 -2.77785 3.95242
rclavicle -1.2921e-015 4.77083e-015
rhumerus -35.1562 -21.1823 -70.9907
rradius 32.4224
rwrist 7.49616
rhand -16.8708 7.45069
rfingers 7.12502
rthumb 9.36 -22.3215
lclavicle -1.2921e-015 4.77083e-015
lhumerus -34.1636 7.0342 88.9754
lradius 36.6544
lwrist 4.00367
lhand -23.8814 25.8817
lfingers 7.12502
lthumb 2.59185 55.8457
rfemur -6.05432 -3.40663 19.5899
rtibia 34.489
rfoot -22.0283 7.66782
rtoes 5.65956
lfemur -9.51891 -1.73439 -18.5402
ltibia 36.9826
lfoot -19.455 4.7413
ltoes -14.1994
503
root -6.55936 17.6815 9.73384 -182.46 2.0014 177.725
lowerback 13.1639 1.38818 0.933017
upperback 1.41685 2.25533 1.35797
thorax -5.9081 1.1804 0.487729
lowerneck -20.0362 -1.70178 -11.683
upperneck 34.5791 -2.91883 6.02076
head 15.881 -2.77499 3.8464
rclavicle -1.0138e-014 -2.38542e-014
rhumerus -35.2192 -21.7791 -70.7815
rradius 32.6109
rwrist 6.99226
rhand -17.0687 7.61697
rfingers 7.12502
rthumb 9.16907 -22.1637
lclavicle -1.0138e-014 -2.38542e-014
lhumerus -34.3309 6.74126 88.9906
lradius 36.7305
lwrist 4.01604
lhand -23.8332 25.8939
lfingers 7.12502
lthumb 2.63847 55.8573
rfemur -5.69912 -3.32079 19.2462
rtibia 34.2087
rfoot -21.8895 7.75075
rtoes 5.24293
lfemur -9.19043 -1.96826 -18.2131
ltibia 36.5544
lfoot -18.5975 6.03211
ltoes -10.6501
504
root -6.61406 17.697 9.72602 -182.558 2.05685 177.516
lowerback 13.1625 1.4073 0.65514
upperback 1.48855 2.23727 1.29138
thorax -5.83882 1.17871 0.578615
lowerneck -20.1953 -1.73784 -11.5245
upperneck 34.5171 -2.92832 5.8918
head 15.885 -2.76092 3.76074
rclavicle -9.24349e-015 3.49861e-014
rhumerus -35.194 -22.243 -70.6868
rradius 32.8979
rwrist 6.34221
rhand -17.0553 7.47665
rfingers 7.12502
rthumb 9.182 -22.3034
lclavicle -9.24349e-015 3.49861e-014
lhumerus -34.2342 6.71672 88.9413
lradius 36.5663
lwrist 3.75373
lhand -23.8574 25.8839
lfingers 7.12502
lthumb 2.61507 55.8476
rfemur -5.45438 -3.3052 18.7822
rtibia 33.9447
rfoot -21.6721 7.86389
rtoes 5.37033
lfemur -8.79943 -2.26342 -17.9541
ltibia 36.0446
lfoot -18.0051 7.08828
ltoes -8.01798
505
root -6.66814 17.7095 9.72345 -182.649 2.11705 177.285
lowerback 13.1393 1.42912 0.386703
upperback 1.59163 2.22499 1.20722
thorax -5.7232 1.18027 0.645753
lowerneck -20.3458 -1.74718 -11.5397
upperneck 34.471 -2.93238 6.01605
head 15.9007 -2.73453 3.81881
rclavicle -1.03368e-014 -5.56597e-015
rhumerus -35.0808 -22.7575 -70.5895
rradius 33.0968
rwrist 5.67169
rhand -17.0116 7.5709
rfingers 7.12502
rthumb 9.22412 -22.2073
lclavicle -1.03368e-014 -5.56597e-015
lhumerus -34.0703 6.57782 88.9079
lradius 36.4434
lwrist 3.66126
lhand -23.7751 25.922
lfingers 7.12502
lthumb 2.69456 55.8847
rfemur -5.2551 -3.37105 18.2848
rtibia 33.7125
rfoot -21.3812 8.06328
rtoes 5.61394
lfemur -8.44672 -2.39298 -17.6751
ltibia 35.4604
lfoot -17.4092 7.94028
ltoes -7.1291
506
root -6.72431 17.7191 9.71483 -182.804 2.31051 177.199
lowerback 13.0954 1.48819 0.285185
upperback 1.6941 2.29071 1.17006
thorax -5.59363 1.21726 0.654956
lowerneck -20.2929 -1.77021 -11.6943
upperneck 34.407 -3.00282 6.26627
head 15.8723 -2.74609 3.94129
rclavicle -1.71949e-014 -4.77083e-015
rhumerus -35.0501 -23.2419 -70.4399
rradius 33.2566
rwrist 5.20097
rhand -16.8653 7.57045
rfingers 7.12502
rthumb 9.3653 -22.2015
lclavicle -1.71949e-014 -4.77083e-015
lhumerus -33.905 6.45102 88.8762
lradius 36.2454
lwrist 3.42668
lhand -23.6657 25.7938
lfingers 7.12502
lthumb 2.80021 55.7551
rfemur -5.01803 -3.21582 17.9604
rtibia 33.5671
rfoot -21.239 8.19643
rtoes 5.7182
lfemur -7.9431 -2.52109 -17.2392
ltibia 34.8077
lfoot -16.8833 8.73589
ltoes -6.94075
507
root -6.78499 17.7298 9.70435 -182.839 2.50433 177.12
lowerback 12.9633 1.55868 0.240232
upperback 1.69283 2.36806 1.10412
thorax -5.52164 1.2539 0.601504
lowerneck -20.1577 -1.80597 -11.6646
upperneck 34.37 -3.1131 6.30158
head 15.8359 -2.7872 3.92786
rclavicle -1.07344e-014 1.51076e-014
rhumerus -35.1795 -23.4014 -70.4147
rradius 33.5059
rwrist 4.61387
rhand -16.8625 7.38183
rfingers 7.12502
rthumb 9.36799 -22.39
lclavicle -1.07344e-014 1.51076e-014
lhumerus -33.8335 6.41052 88.7604
lradius 36.01
lwrist 3.12053
lhand -23.3644 25.6678
lfingers 7.12502
lthumb 3.09123 55.6251
rfemur -4.89409 -3.0101 17.6361
rtibia 33.4136
rfoot -21.1673 8.35341
rtoes 5.79064
lfemur -7.53919 -2.66314 -16.7877
ltibia 34.1238
lfoot -16.2996 9.30227
ltoes -7.06291
508
root -6.84493 17.7316 9.69825 -182.891 2.62907 177.068
lowerback 12.9041 1.58751 0.178999
upperback 1.71106 2.39293 1.05346
thorax -5.4701 1.26664 0.580689
lowerneck -20.199 -1.81222 -11.5727
upperneck 34.4357 -3.15775 6.27067
head 15.8808 -2.80381 3.89073
rclavicle 3.47873e-015 -3.4191e-014
rhumerus -35.2319 -23.3584 -70.5174
rradius 33.8076
rwrist 4.02109
rhand -16.952 7.21291
rfingers 7.12502
rthumb 9.28167 -22.5628
lclavicle 3.47873e-015 -3.4191e-014
lhumerus -33.7436 6.5211 88.5947
lradius 35.92
lwrist 2.86917
lhand -23.0916 25.8583
lfingers 7.12502
lthumb 3.35466 55.8116
rfemur -4.72256 -2.97856 17.3271
rtibia 33.1854
rfoot -21.0894 8.5367
rtoes 5.50375
lfemur -7.11534 -2.80943 -16.2637
ltibia 33.43
lfoot -15.7219 9.51622
ltoes -8.83187
509
root -6.90452 17.7335 9.69026 -183.012 2.72163 177.076
lowerback 12.9183 1.59495 0.159586
upperback 1.729 2.39964 1.0296
thorax -5.45882 1.27057 0.565292
lowerneck -20.1262 -1.80107 -11.5486
upperneck 34.43 -3.18416 6.305
head 15.8635 -2.81117 3.89531
rclavicle 2.9122e-014 -1.82882e-014
rhumerus -35.2992 -23.2219 -70.6113
rradius 34.0541
rwrist 3.63014
rhand -16.9322 7.337
rfingers 7.12502
rthumb 9.30072 -22.4378
lclavicle 2.9122e-014 -1.82882e-014
lhumerus -33.649 6.71824 88.4124
lradius 35.7637
lwrist 2.66671
lhand -23.0414 26.0457
lfingers 7.12502
lthumb 3.40311 55.9983
rfemur -4.39973 -2.95464 17.0868
rtibia 32.8646
rfoot -20.9866 8.63432
rtoes 5.07372
lfemur -6.66168 -2.93022 -15.6379
ltibia 32.7753
lfoot -15.3491 9.45936
ltoes -9.59734
